<svg xmlns="http://www.w3.org/2000/svg" xmlns:xlink="http://www.w3.org/1999/xlink" xml:space="preserve" version="1.1" style="shape-rendering:geometricPrecision;text-rendering:geometricPrecision;image-rendering:optimizeQuality;" viewBox="0 0 60000 75000" x="0px" y="0px" fill-rule="evenodd" clip-rule="evenodd"><defs><style type="text/css">
   
    .fil0 {fill:black;fill-rule:nonzero}
   
  </style></defs><g><path class="fil0" d="M30000 2420c2176,0 4151,870 5602,2284l8 7 0 0c31,30 62,61 92,92 1459,1472 2362,3504 2362,5748 0,2244 -903,4276 -2362,5748 -1460,1472 -3476,2383 -5702,2383 -2226,0 -4242,-911 -5702,-2383 -1459,-1472 -2362,-3504 -2362,-5748 0,-2244 903,-4276 2362,-5748 1460,-1472 3476,-2383 5702,-2383zm-21819 6919l7823 11517c713,896 986,1599 942,2265 -45,668 -403,1243 -956,1903 -61,73 -150,176 -233,272 -441,511 -603,699 -162,1342l21099 30701 1 -1c1381,1933 3232,623 5253,-808 202,-143 405,-287 547,-386l0 -1c128,-90 341,-237 551,-383 2035,-1410 3899,-2701 2555,-4660l-3 -4 -21630 -30322c-452,-634 -684,-546 -1316,-306 -98,37 -203,77 -334,125 -809,293 -1472,433 -2115,247 -640,-185 -1207,-681 -1803,-1654l-8160 -11308c-130,11 -262,-46 -341,-160 -119,-171 -78,-406 93,-525 318,-223 353,-621 216,-1107 -132,245 -309,456 -504,593 -171,119 -406,78 -525,-93 -119,-171 -78,-406 93,-525 160,-112 303,-337 375,-589 60,-211 64,-432 -23,-602 -16,-32 -27,-64 -34,-97 -153,-254 -323,-510 -499,-762 -409,-584 -860,-1144 -1242,-1598 -63,119 -141,241 -234,363 -333,439 -866,911 -1501,1358 -11,9 -23,18 -35,26l0 0c-36,26 -87,62 -152,108 -610,427 -1211,744 -1715,886 -123,35 -242,60 -356,74 339,569 774,1250 1251,1879 157,207 318,408 481,597 131,138 337,208 553,224 263,20 523,-38 683,-151 171,-119 406,-78 525,93 119,171 78,406 -93,525 -179,125 -410,215 -660,259l2 1c228,156 444,258 638,282 145,18 282,-10 405,-96 171,-119 406,-78 525,93 87,124 88,283 17,406zm44337 -3178l-10321 14149 -2110 3399 2550 -3090 10010 -14367 -129 -92zm-13918 19943c-5,7 -10,13 -16,19l-26 32c-66,81 -185,92 -266,26 -81,-66 -92,-185 -26,-266l25 -30 3584 -5774 0 0c2,-4 5,-8 8,-11l10430 -14299c3,-4 5,-9 8,-13 61,-85 179,-105 264,-44l432 310c85,61 105,179 44,264l-10116 14519c-6,8 -12,16 -19,23l-4328 5243zm13895 -16418l-7889 11615c-5,8 -11,16 -17,23l1 1c-585,735 -812,1275 -780,1746 31,469 326,924 781,1468 101,120 165,194 224,263 719,834 984,1140 212,2262l-7676 11170 8862 12423c4,6 9,11 13,17 1769,2578 -391,4074 -2750,5708 -154,106 -308,214 -546,380l0 -1 -1 1c-225,157 -385,270 -545,383 -2342,1658 -4486,3176 -6304,631l1 -1 -6080 -8847 -6080 8847 1 1c-1818,2545 -3962,1027 -6304,-631 -160,-113 -320,-227 -545,-383l-1 -1 -1 1c-237,-167 -392,-274 -546,-380 -2359,-1634 -4519,-3130 -2750,-5708 4,-6 8,-12 13,-17l8862 -12423 -7676 -11170c-771,-1122 -507,-1429 212,-2262 59,-69 123,-143 224,-263 455,-544 750,-999 781,-1468 32,-471 -195,-1011 -780,-1746l1 -1c-6,-7 -12,-15 -17,-23l-7889 -11615c-119,17 -240,17 -363,2 -321,-40 -648,-186 -972,-409 -569,-391 -1145,-1027 -1669,-1718 -790,-1043 -1471,-2224 -1807,-2846 -16,-30 -28,-61 -35,-93 -150,-392 -4,-839 349,-1303 334,-437 872,-908 1511,-1358 6,-5 13,-10 20,-15l0 0 1 1 1 -1c684,-479 1358,-841 1910,-993 564,-156 1032,-106 1328,219 10,9 19,19 28,29l67 77c428,494 1175,1354 1836,2297 953,1361 1696,2877 1115,3819l8189 11349c10,13 19,26 28,40 490,801 920,1199 1373,1330 451,131 980,10 1647,-232 106,-39 220,-82 325,-122 1029,-391 1407,-534 2198,575l5417 7593 5417 -7593c791,-1109 1169,-966 2198,-575 105,40 219,83 325,122 667,242 1195,363 1647,232 453,-131 883,-529 1373,-1330 9,-14 18,-27 28,-40l8189 -11349c-581,-942 163,-2458 1115,-3819 660,-943 1407,-1804 1836,-2297l67 -77c9,-10 18,-20 28,-29 296,-326 764,-375 1328,-220 552,152 1225,514 1910,993l1 1 0 -1 0 0c7,5 14,10 20,15 638,449 1177,920 1511,1358 353,463 499,910 349,1303 -7,32 -19,63 -35,93 -337,622 -1017,1803 -1807,2846 -524,692 -1100,1328 -1669,1718 -324,223 -651,369 -972,409 -123,15 -244,15 -363,-2zm-15611 27893l7520 -10943c441,-642 279,-830 -162,-1342 -83,-96 -171,-199 -233,-272 -552,-660 -911,-1235 -956,-1903 -45,-665 229,-1369 942,-2265l7823 -11517c-71,-123 -70,-281 17,-406 119,-171 355,-213 525,-93 123,86 260,114 405,96 194,-24 410,-125 638,-282l2 -1c-249,-45 -481,-134 -660,-259 -171,-119 -213,-355 -93,-525 119,-171 355,-213 525,-93 161,112 421,170 683,151 216,-16 422,-86 553,-224 163,-189 324,-390 481,-597 476,-629 912,-1310 1251,-1879 -114,-15 -233,-39 -356,-74 -504,-142 -1105,-458 -1715,-886 -65,-46 -116,-82 -152,-108l0 0c-12,-8 -24,-17 -35,-26 -634,-447 -1168,-920 -1501,-1358 -93,-123 -171,-244 -234,-363 -382,454 -833,1014 -1242,1598 -176,252 -346,508 -499,762 -7,33 -18,66 -34,97 -87,170 -83,390 -23,602 71,253 214,477 375,589 171,119 213,355 93,525 -119,171 -355,213 -525,93 -195,-137 -372,-348 -504,-593 -137,486 -102,884 216,1107 171,119 213,355 93,525 -80,114 -212,171 -341,160l-8160 11308c-597,973 -1164,1469 -1803,1654 -643,186 -1306,46 -2115,-247 -131,-47 -236,-87 -334,-125 -632,-240 -864,-328 -1316,306l-5568 7806 6420 9001zm-13779 1316l-8703 12200 -3 4c-1345,1959 519,3250 2555,4660 211,146 423,293 551,383l0 1c142,99 345,243 547,386 2021,1431 3872,2741 5253,808l1 1 6237 -9075 -6438 -9367zm31921 -36330l0 0 0 -1c-617,-432 -1210,-753 -1678,-883 -297,-82 -511,-86 -585,20 -82,117 13,339 224,616 284,375 759,792 1334,1197 7,4 14,8 21,13l0 1c5,3 9,6 14,10 69,51 120,87 151,109 542,379 1063,657 1487,776 300,85 521,89 609,-16 6,-9 12,-18 19,-26 67,-124 -28,-339 -230,-603 -287,-376 -767,-793 -1344,-1199 -7,-4 -14,-9 -21,-14zm-30589 28363c-119,-172 -77,-408 95,-527 172,-119 408,-77 527,95l14348 20594c119,172 77,408 -95,527 -172,119 -408,77 -527,-95l-14348 -20594zm-16751 -25127l10430 14299c3,4 5,8 8,11l0 0 3584 5774 25 30c66,81 55,199 -26,266 -81,66 -199,55 -266,-26l-26 -32c-6,-6 -11,-12 -16,-19l-4328 -5243c-7,-7 -13,-15 -19,-23l-10116 -14519c-61,-85 -41,-203 44,-264l432 -310c85,-61 203,-41 264,44 3,4 6,9 8,13zm12227 17909l-2110 -3399 -10321 -14149 -129 92 10010 14367 2550 3090zm-14940 -21145l0 0c-7,5 -14,10 -21,14 -577,406 -1057,823 -1344,1199 -202,264 -297,479 -230,603 7,8 13,17 19,26 88,105 309,101 609,16 424,-120 946,-397 1487,-776 31,-22 82,-58 151,-109 5,-3 9,-7 14,-10l0 -1c7,-5 14,-9 21,-13 574,-405 1050,-822 1334,-1197 210,-278 305,-500 224,-616 -74,-106 -288,-102 -585,-20 -468,129 -1061,451 -1678,883l0 1zm30935 9674c35,-126 166,-199 291,-164 126,35 199,166 164,291 -195,696 -499,1346 -892,1928 -399,592 -891,1116 -1455,1552 -103,80 -251,61 -331,-43 -80,-103 -61,-251 43,-331 522,-404 979,-891 1351,-1442 366,-542 648,-1146 829,-1792zm-12329 995c28,165 67,327 114,488l454 -135c-42,-143 -76,-287 -101,-434l-467 81zm10677 -8593c-124,-42 -248,-77 -376,-106l-105 462c111,26 219,56 328,93l153 -448zm-1853 -212c-120,6 -240,16 -359,27l-42 4 -42 5 -45 5 58 470 -1 0 40 -5 40 -4 40 -4c112,-11 225,-20 337,-26l-25 -473zm-1917 352l-63 20 -43 14 -43 14 -43 14 -43 14 -43 15 -42 15 -42 15 -42 15 -57 21 167 443 53 -19 40 -15 40 -14 40 -14 40 -14 40 -14 40 -14 40 -13 40 -13 61 -19 -142 -452zm-1781 761l-42 23 -82 45 -81 46 -41 23 -40 23 -81 47 -54 33 245 405c30,-18 60,-36 90,-53l77 -45 78 -44 78 -44c26,-14 52,-29 79,-43l-226 -416zm-1613 1065c-36,28 -71,56 -106,85l-37 30 -37 30 -37 30 -73 61 -36 31 -48 41 309 359c26,-23 53,-45 80,-68 35,-29 70,-58 105,-87 35,-29 70,-57 106,-86l68 -54 -294 -371zm-1413 1317l-58 65 -31 35 -31 35 -31 35 -30 35 -30 35 -30 36 -30 36 -44 54 366 301 42 -50 29 -34 29 -34 29 -34 58 -67 59 -67 57 -64 -352 -316zm-1159 1553l-19 31 -23 39 -23 39 -23 39 -22 39 -22 39 -22 39 -22 39 -21 39 -21 40 -21 39 419 221 19 -37 20 -37 20 -37 20 -37 21 -37 21 -37 21 -37 21 -37 22 -37 22 -37 19 -31 -407 -242zm-796 1779l-8 27 -12 42 -12 42 -11 42 -11 42 -11 42 -11 42c-17,67 -32,134 -46,202l464 93 0 0c12,-61 26,-120 41,-180l10 -39 10 -39 10 -39 11 -39 11 -39 11 -39 8 -27 -455 -133zm-858 -2303c607,-1298 1588,-2509 2761,-3497 1288,-1085 2812,-1905 4328,-2278 -2000,12 -3809,834 -5121,2158 -966,974 -1663,2221 -1968,3617zm12229 -3688l0 0c-695,-647 -1340,-1063 -1983,-1299 -634,-233 -1273,-293 -1961,-229 -1714,159 -3541,1034 -5038,2296 -1463,1232 -2601,2826 -3000,4470 -167,690 -201,1295 -68,1947 136,667 447,1397 967,2326 190,274 399,535 623,780 -17,-52 -33,-104 -48,-157 -237,-832 -217,-1690 -12,-2533 438,-1805 1670,-3540 3249,-4870 1608,-1355 3586,-2297 5456,-2470 775,-72 1547,-41 2241,192 -113,-132 -231,-259 -353,-383 -24,-24 -48,-48 -72,-71zm1610 2351c-348,-612 -833,-975 -1391,-1169 -591,-206 -1272,-232 -1967,-168 -1714,159 -3541,1034 -5038,2296 -1463,1232 -2601,2826 -3000,4470 -175,720 -193,1449 6,2148 176,618 524,1218 1086,1776 1062,608 2291,955 3599,955 2018,0 3845,-825 5166,-2158 1322,-1334 2140,-3177 2140,-5215 0,-1043 -214,-2036 -601,-2935z"/></g><text x="0" y="60015" fill="#000000" font-size="5px" font-weight="bold" font-family="'Helvetica Neue', Helvetica, Arial-Unicode, Arial, Sans-serif">Created by Olena Panasovska</text><text x="0" y="60020" fill="#000000" font-size="5px" font-weight="bold" font-family="'Helvetica Neue', Helvetica, Arial-Unicode, Arial, Sans-serif">from the Noun Project</text></svg>